<svg width="493.1525146484375px" height="166.88000183105467px" xmlns="http://www.w3.org/2000/svg" viewBox="3.4237426757812557 -8.440000915527335 493.1525146484375 166.88000183105467" style="background: rgba(0, 0, 0, 0);" preserveAspectRatio="xMidYMid"><defs><filter id="editing-hole" x="-100%" y="-100%" width="300%" height="300%"><feFlood flood-color="none" result="black"></feFlood><feMorphology operator="dilate" radius="2" in="SourceGraphic" result="erode"></feMorphology><feGaussianBlur in="erode" stdDeviation="4" result="blur"></feGaussianBlur><feOffset in="blur" dx="2" dy="2" result="offset"></feOffset><feComposite operator="atop" in="offset" in2="black" result="merge"></feComposite><feComposite operator="in" in="merge" in2="SourceGraphic" result="inner-shadow"></feComposite></filter></defs><g filter="url(#editing-hole)"><g transform="translate(78.80000305175781, 110.6500015258789)"><path d="M1.50-70L51.50-70L51.50-67L28-67L28 0L25 0L25-67L1.50-67L1.50-70ZM67.80 0L67.80-3L100.40-3L79.90-51.30L58.10 0L54.90 0L79.90-59L104.90 0L67.80 0ZM131.60-59.20L131.60-59.20L131.60-59.20Q144-59.20 149.20-53.70L149.20-53.70L147.20-51.50L147.20-51.50Q142.40-56.20 132-56.20L132-56.20L132-56.20Q116.40-56.20 116.40-43.80L116.40-43.80L116.40-43.80Q116.40-39 120.20-36.15L120.20-36.15L120.20-36.15Q124.00-33.30 129.45-31.80L129.45-31.80L129.45-31.80Q134.90-30.30 140.35-28.65L140.35-28.65L140.35-28.65Q145.80-27 149.60-23.35L149.60-23.35L149.60-23.35Q153.40-19.70 153.40-13.80L153.40-13.80L153.40-13.80Q153.40-6.90 147.70-2.80L147.70-2.80L147.70-2.80Q142 1.30 131.20 1.30L131.20 1.30L131.20 1.30Q125.90 1.30 120.75-0.10L120.75-0.10L120.75-0.10Q115.60-1.50 113.10-4.20L113.10-4.20L115.10-6.40L115.10-6.40Q120.20-1.70 130.80-1.70L130.80-1.70L130.80-1.70Q140.50-1.70 145.45-5.30L145.45-5.30L145.45-5.30Q150.40-8.90 150.40-13.70L150.40-13.70L150.40-13.70Q150.40-18.70 146.60-21.80L146.60-21.80L146.60-21.80Q142.80-24.90 137.35-26.45L137.35-26.45L137.35-26.45Q131.90-28 126.45-29.65L126.45-29.65L126.45-29.65Q121.00-31.30 117.20-34.80L117.20-34.80L117.20-34.80Q113.40-38.30 113.40-44L113.40-44L113.40-44Q113.40-51.70 118.55-55.45L118.55-55.45L118.55-55.45Q123.70-59.20 131.60-59.20ZM171 0L168 0L168-58L171-58L171 0ZM209.30 0L205 0L174.20-30.60L201.80-58L206.10-58L178.50-30.60L209.30 0ZM219.50 0L219.50-58L222.50-58L222.50 0L219.50 0ZM249.10 0L249.10 0L241.50 0L241.50-58L249.10-58L249.10-58Q263.90-58 272.70-50.20L272.70-50.20L272.70-50.20Q281.50-42.40 281.50-29L281.50-29L281.50-29Q281.50-15.60 272.70-7.80L272.70-7.80L272.70-7.80Q263.90 0 249.10 0ZM244.50-3L249.10-3L249.10-3Q262.60-3 270.55-9.90L270.55-9.90L270.55-9.90Q278.50-16.80 278.50-29L278.50-29L278.50-29Q278.50-41.20 270.55-48.10L270.55-48.10L270.55-48.10Q262.60-55 249.10-55L249.10-55L244.50-55L244.50-3ZM326-54.95L326-54.95L326-54.95Q322.60-56 317.60-56L317.60-56L317.60-56Q312.60-56 309.20-54.95L309.20-54.95L309.20-54.95Q305.80-53.90 302.95-51.05L302.95-51.05L302.95-51.05Q300.10-48.20 298.70-42.75L298.70-42.75L298.70-42.75Q297.30-37.30 297.30-29L297.30-29L297.30-29Q297.30-20.70 298.70-15.25L298.70-15.25L298.70-15.25Q300.10-9.80 302.95-6.95L302.95-6.95L302.95-6.95Q305.80-4.10 309.20-3.05L309.20-3.05L309.20-3.05Q312.60-2 317.60-2L317.60-2L317.60-2Q322.60-2 326-3.05L326-3.05L326-3.05Q329.40-4.10 332.25-6.95L332.25-6.95L332.25-6.95Q335.10-9.80 336.50-15.25L336.50-15.25L336.50-15.25Q337.90-20.70 337.90-29L337.90-29L337.90-29Q337.90-37.30 336.50-42.75L336.50-42.75L336.50-42.75Q335.10-48.20 332.25-51.05L332.25-51.05L332.25-51.05Q329.40-53.90 326-54.95ZM335.50-6.10L335.50-6.10L335.50-6.10Q330.10 1 317.60 1L317.60 1L317.60 1Q305.10 1 299.70-6.10L299.70-6.10L299.70-6.10Q294.30-13.20 294.30-29L294.30-29L294.30-29Q294.30-44.80 299.70-51.90L299.70-51.90L299.70-51.90Q305.10-59 317.60-59L317.60-59L317.60-59Q330.10-59 335.50-51.90L335.50-51.90L335.50-51.90Q340.90-44.80 340.90-29L340.90-29L340.90-29Q340.90-13.20 335.50-6.10Z" fill="#464dee"></path></g></g><style>text {
  font-size: 64px;
  font-family: Arial Black;
  dominant-baseline: central;
  text-anchor: middle;
}</style></svg>