<?xml version="1.0" encoding="UTF-8" standalone="no"?>
<!DOCTYPE svg PUBLIC "-//W3C//DTD SVG 1.1//EN" "http://www.w3.org/Graphics/SVG/1.1/DTD/svg11.dtd">
<svg version="1.1" xmlns="http://www.w3.org/2000/svg" xmlns:xlink="http://www.w3.org/1999/xlink" preserveAspectRatio="xMidYMid meet" viewBox="0 0 640 640" width="640" height="640"><defs><path d="M427.48 221.56C427.48 291.93 370.34 349.06 299.98 349.06C229.61 349.06 172.48 291.93 172.48 221.56C172.48 151.19 229.61 94.06 299.98 94.06C370.34 94.06 427.48 151.19 427.48 221.56Z" id="e6GgzalXN"></path><path d="M559.26 223.64C559.26 294.01 502.13 351.14 431.76 351.14C361.39 351.14 304.26 294.01 304.26 223.64C304.26 153.27 361.39 96.14 431.76 96.14C502.13 96.14 559.26 153.27 559.26 223.64Z" id="a1B23yk1EO"></path><path d="M405.15 294.7C402.46 298.1 400.79 300.22 400.12 301.07C382.75 323.03 358.53 338.55 331.31 345.13C330.73 345.27 329.27 345.62 326.93 346.19" id="a26RaJ6dI2"></path></defs><g><g><g><g><use xlink:href="#e6GgzalXN" opacity="1" fill-opacity="0" stroke="#00eaf9" stroke-width="45" stroke-opacity="1"></use></g></g><g><g><use xlink:href="#a1B23yk1EO" opacity="1" fill-opacity="0" stroke="#0c95f6" stroke-width="45" stroke-opacity="1"></use></g></g><g><g><use xlink:href="#a26RaJ6dI2" opacity="1" fill-opacity="0" stroke="#00eaf9" stroke-width="45" stroke-opacity="1"></use></g></g></g></g></svg>